<mxfile host="app.diagrams.net" modified="2023-08-21T09:28:00.419Z" agent="Mozilla/5.0 (Windows NT 10.0; Win64; x64; rv:109.0) Gecko/20100101 Firefox/116.0" version="21.6.8" etag="rILu-2DhDy4B1ZAfkejw" type="github">
  <diagram name="Page-1" id="_Ul8I6sfY-4WNgqRWe-r">
    <mxGraphModel>
      <root>
        <mxCell id="0" />
        <mxCell id="1" parent="0" />
      </root>
    </mxGraphModel>
  </diagram>
</mxfile>
